# generated from PmQm by Jehee Lee
:FULLY-SPECIFIED
:DEGREES
358
root 142.5300046 38.2368 38.61833871 9.432471368 -52.63431828 -12.36127179
RightUpLeg -24.43019853 4.293842986 9.870483727
RightLeg 25.09165517 0 0
RightFoot -2.880725277 14.25939973 -5.720461235
RightToes 2.32829e-010 -1.59028e-015 9.93923e-017
Spine -7.471 -3.38381 6.01816
Spine1 13.8059 -4.71277 5.16031
HEad -10.7382 0.819757 1.88153
LeftShoulder1 9.93923e-017 0 1.22299e-017
LeftArm -1.51826 33.0471 -83.3931
LeftForeArm -15.0812 -9.44565 -6.17775
LeftHand 0.93976 6.5249 -4.42647
RightShoulder 1.98785e-016 -4.96962e-017 1.55301e-017
RightArm 4.08717 -48.0352 83.6402
RightForeArm -24.1846 14.0368 1.48387
RightHand 1.15347 -10.7282 -4.27077
LeftUpLeg 5.309292262 -6.343867969 16.15930557
LeftLeg 42.22720929 2.066276161 9.653271957
LeftFoot 24.71282244 18.79717987 -26.07831428
LeftToes 8.82235e-011 9.04645e-011 1.87288e-011
359
root 141.3343913 38.6402 39.73328985 8.877426264 -54.67332189 -11.70670249
RightUpLeg -21.02615229 4.597827864 9.245617248
RightLeg 24.12616826 0 0
RightFoot -4.765733639 15.94357564 -5.843741896
RightToes 2.32829e-010 -1.59028e-015 9.93923e-017
Spine -7.67037 -2.51773 6.47335
Spine1 13.688 -3.46845 3.80072
HEad -9.14405 -0.707546 2.91489
LeftShoulder1 9.93923e-017 0 1.22299e-017
LeftArm 1.10318 36.3486 -82.924
LeftForeArm -14.1159 -7.68597 -7.38561
LeftHand 1.00284 7.13454 -6.18465
RightShoulder 1.98785e-016 -4.96962e-017 1.55301e-017
RightArm 7.34038 -43.5911 85.2189
RightForeArm -27.2352 15.2275 0.003924370001
RightHand 1.18297 -10.6363 -5.35387
LeftUpLeg -1.071622784 -7.050807002 14.01281981
LeftLeg 47.40903244 1.27770237 12.45287729
LeftFoot 21.25584026 15.41652464 -21.61228546
LeftToes 8.82235e-011 9.04645e-011 1.87288e-011
360
root 140.1517119 38.9605 40.8062509 8.040569999 -57.17346267 -10.72445475
RightUpLeg -17.70717826 4.238712024 8.324300658
RightLeg 23.19426321 0 0
RightFoot -6.803826355 18.55995012 -5.583436553
RightToes 2.32829e-010 -1.59028e-015 9.93923e-017
Spine -7.83645 -1.43061 7.21708
Spine1 13.4939 -1.89804 1.99475
HEad -7.51557 -2.16027 3.22743
LeftShoulder1 9.93923e-017 0 1.22299e-017
LeftArm 3.31971 40.2464 -81.5602
LeftForeArm -12.7848 -8.16886 -7.155
LeftHand 1.03904 7.59664 -7.14162
RightShoulder 1.98785e-016 -4.96962e-017 1.55301e-017
RightArm 13.4859 -40.2862 86.3907
RightForeArm -35.0111 17.704 -4.95831
RightHand 1.18406 -10.5387 -5.75478
LeftUpLeg -6.870839282 -7.535674594 11.71175238
LeftLeg 49.80381796 -0.3495745951 12.09931907
LeftFoot 17.66093159 12.96062822 -19.6893932
LeftToes 8.82235e-011 9.04645e-011 1.87288e-011
361
root 138.9458237 39.1443 41.70428188 7.258823483 -59.98121136 -9.879364804
RightUpLeg -14.76854271 3.86138296 7.469069481
RightLeg 22.78679533 0 0
RightFoot -8.936463024 21.60239753 -5.982941538
RightToes 2.32829e-010 -1.59028e-015 9.93923e-017
Spine -7.68166 -0.17435 8.22232
Spine1 13.3304 -0.160738 0.328532
HEad -6.7365 -3.35321 3.01867
LeftShoulder1 9.93923e-017 0 1.22299e-017
LeftArm 5.60205 44.353 -79.4347
LeftForeArm -13.5077 -8.53464 -6.98397
LeftHand 1.03691 7.58639 -7.36546
RightShoulder 1.98785e-016 -4.96962e-017 1.55301e-017
RightArm 23.2456 -37.7105 87.0416
RightForeArm -47.9143 19.9529 -13.667
RightHand 1.16294 -10.4491 -5.53183
LeftUpLeg -11.95344054 -7.364162986 9.800319885
LeftLeg 49.80391325 -2.215987905 9.660001326
LeftFoot 14.62395177 11.07605827 -19.05123737
LeftToes 8.82235e-011 9.04645e-011 1.87288e-011
